<svg width="56" height="56" fill="#ffffff" xmlns="http://www.w3.org/2000/svg" viewBox="0 -960 960 960"><path d="M200-120q-33 0-56.5-23.5T120-200h80v80Zm-80-160v-80h80v80h-80Zm0-160v-80h80v80h-80Zm0-160v-80h80v80h-80Zm0-160q0-33 23.5-56.5T200-840v80h-80Zm160 640v-80h80v80h-80Zm0-640v-80h80v80h-80Zm160 640v-80h80v80h-80Zm0-640v-80h80v80h-80Zm160 640v-80h80v80h-80Zm0-640v-80h80v80h-80Zm160 640v-80h80q0 33-23.5 56.5T760-120Zm0-160v-80h80v80h-80Zm0-160v-80h80v80h-80Zm0-160v-80h80v80h-80Zm0-160v-80q33 0 56.5 23.5T840-760h-80Z"/></svg>